<?xml version="1.0" encoding="UTF-8" standalone="no"?>
<svg
   xmlns:dc="http://purl.org/dc/elements/1.1/"
   xmlns:cc="http://creativecommons.org/ns#"
   xmlns:rdf="http://www.w3.org/1999/02/22-rdf-syntax-ns#"
   xmlns:svg="http://www.w3.org/2000/svg"
   xmlns="http://www.w3.org/2000/svg"
   xmlns:xlink="http://www.w3.org/1999/xlink"
   xmlns:sodipodi="http://sodipodi.sourceforge.net/DTD/sodipodi-0.dtd"
   xmlns:inkscape="http://www.inkscape.org/namespaces/inkscape"
   viewBox="0 0 570 720"
   id="svg3219"
   version="1.1"
   inkscape:version="0.48.4 r9939"
   width="100%"
   height="100%"
   sodipodi:docname="Raspberry_Pi_Logo.svg">
  <metadata
     id="metadata3253">
    <rdf:RDF>
      <cc:Work
         rdf:about="">
        <dc:format>image/svg+xml</dc:format>
        <dc:type
           rdf:resource="http://purl.org/dc/dcmitype/StillImage" />
        <dc:title></dc:title>
      </cc:Work>
    </rdf:RDF>
  </metadata>
  <defs
     id="defs3251">
    <radialGradient
       inkscape:collect="always"
       xlink:href="#linearGradient3273"
       id="radialGradient3279"
       cx="351.0889"
       cy="207.6606"
       fx="351.0889"
       fy="207.6606"
       r="168.68813"
       gradientTransform="matrix(-0.5371037,0.3415436,-0.3364599,-0.5291094,598.11531,152.47575)"
       gradientUnits="userSpaceOnUse" />
    <linearGradient
       id="linearGradient3273">
      <stop
         style="stop-color:#ffffff;stop-opacity:1;"
         offset="0"
         id="stop3275" />
      <stop
         style="stop-color:#ebf0f5;stop-opacity:1;"
         offset="1"
         id="stop3277" />
    </linearGradient>
    <radialGradient
       r="168.68813"
       fy="207.6606"
       fx="351.0889"
       cy="207.6606"
       cx="351.0889"
       gradientTransform="matrix(-0.5371037,0.3415436,-0.3364599,-0.5291094,598.11531,152.47575)"
       gradientUnits="userSpaceOnUse"
       id="radialGradient3298"
       xlink:href="#linearGradient3273"
       inkscape:collect="always" />
  </defs>
  <sodipodi:namedview
     pagecolor="#ffffff"
     bordercolor="#666666"
     borderopacity="1"
     objecttolerance="10"
     gridtolerance="10"
     guidetolerance="10"
     inkscape:pageopacity="0"
     inkscape:pageshadow="2"
     inkscape:window-width="1301"
     inkscape:window-height="744"
     id="namedview3249"
     showgrid="false"
     inkscape:zoom="0.32777778"
     inkscape:cx="285"
     inkscape:cy="360"
     inkscape:window-x="65"
     inkscape:window-y="24"
     inkscape:window-maximized="1"
     inkscape:current-layer="svg3219" />
  <path
     fill="#000"
     d="m158.38,1.6562c-3.6193,0.11232-7.5172,1.4493-11.938,4.9375-10.83-4.1763-21.33-5.6271-30.72,2.8751-14.5-1.8808-19.212,2.0002-22.782,6.5312-3.183-0.066-23.819-3.272-33.282,10.844-23.781-2.814-31.297,13.988-22.781,29.656-4.8569,7.519-9.8895,14.947,1.4688,29.281-4.018,7.9835-1.5274,16.644,7.9375,27.125-2.4979,11.223,2.4121,19.141,11.219,25.312-1.6471,15.358,14.084,24.287,18.781,27.469,1.8037,8.9487,5.5629,17.393,23.531,22.062,2.9632,13.336,13.762,15.639,24.219,18.438-34.562,20.09-64.201,46.523-64,111.38l-5.0625,9.0312c-39.63,24.1-75.285,101.56-19.53,164.52,3.6419,19.708,9.7496,33.864,15.188,49.531,8.1338,63.131,61.218,92.692,75.219,96.188,20.517,15.628,42.368,30.457,71.938,40.844,27.875,28.749,58.074,39.706,88.438,39.688,0.44515-0.00028,0.89853,0.005,1.3438,0,30.364,0.0189,60.562-10.938,88.438-39.688,29.569-10.387,51.421-25.216,71.938-40.844,14.001-3.4959,67.085-33.057,75.219-96.188,5.4379-15.667,11.546-29.823,15.188-49.531,55.754-62.965,20.1-140.43-19.531-164.53l-5.07-9.03c0.20067-64.852-29.438-91.285-64-111.38,10.457-2.7984,21.256-5.1014,24.219-18.438,17.968-4.6698,21.728-13.114,23.531-22.062,4.6978-3.1813,20.428-12.111,18.781-27.469,8.8067-6.1716,13.717-14.09,11.219-25.312,9.4649-10.481,11.956-19.141,7.9375-27.125,11.36-14.328,6.32-21.756,1.47-29.275,8.51-15.668,1-32.47-22.79-29.656-9.46-14.116-30.09-10.91-33.28-10.844-3.57-4.531-8.28-8.412-22.78-6.5312-9.39-8.5022-19.89-7.0514-30.72-2.875-12.86-10.148-21.37-2.0133-31.09,1.0624-15.57-5.0877-19.13,1.881-26.78,4.7188-16.98-3.5881-22.14,4.224-30.28,12.469l-9.4688-0.1875c-25.611,15.093-38.334,45.826-42.844,61.625-4.5121-15.802-17.206-46.535-42.812-61.625l-9.4688,0.1875c-8.15-8.245-13.31-16.057-30.29-12.469-7.65-2.8378-11.2-9.8065-26.78-4.7188-6.3797-2.0185-12.247-6.2144-19.156-6z"
     id="path3221" />
  <path
     fill="#75a928"
     d="m107.39,68.056c67.948,35.031,107.45,63.369,129.09,87.504-11.082,44.418-68.896,46.445-90.036,45.199,4.3284-2.0147,7.9399-4.4278,9.2205-8.1357-5.3045-3.7698-24.113-0.39719-37.244-7.7742,5.0441-1.045,7.4035-2.063,9.7629-5.7854-12.406-3.9567-25.769-7.3664-33.628-13.921,4.2413,0.0524,8.2012,0.9488,13.74-2.8927-11.112-5.9882-22.969-10.734-32.181-19.887,5.7452-0.14063,11.939-0.0568,13.74-2.1695-10.17-6.3007-18.751-13.308-25.854-20.972,8.04,0.97052,11.435,0.13478,13.379-1.2656-7.6878-7.8742-17.418-14.523-22.057-24.226,5.9696,2.0575,11.431,2.8451,15.368-0.1808-2.6124-5.8935-13.805-9.3696-20.249-23.142,6.2844,0.60938,12.95,1.3711,14.283,0-2.917-11.884-7.922-18.565-12.831-25.487,13.45-0.2,33.828,0.052,32.905-1.085l-8.3165-8.4973c13.138-3.5372,26.581,0.56816,36.34,3.6159,4.3819-3.4577-0.0776-7.83-5.4238-12.294,11.165,1.4906,21.254,4.0574,30.373,7.5934,4.8724-4.3993-3.1639-8.7987-7.051-13.198,17.249,3.2726,24.557,7.8707,31.82,12.475,5.2694-5.0508,0.30166-9.3433-3.2543-13.74,13.006,4.817,19.705,11.036,26.758,17.175,2.3912-3.2271,6.0749-5.5924,1.6272-13.379,9.2342,5.3227,16.189,11.595,21.334,18.622,5.7134-3.6379,3.4039-8.613,3.4351-13.198,9.5966,7.8065,15.687,16.114,23.142,24.226,1.5017-1.0934,2.8166-4.8017,3.9775-10.667,22.895,22.212,55.246,78.158,8.3165,100.34-39.94-32.94-87.64-56.883-140.5-74.844z"
     id="path3223" />
  <path
     fill="#75a928"
     d="M467.92,68.056c-67.94,35.034-107.44,63.364-129.08,87.504,11.082,44.418,68.896,46.445,90.036,45.199-4.3284-2.0147-7.9399-4.4278-9.2205-8.1357,5.3045-3.7698,24.113-0.39719,37.244-7.7742-5.0441-1.045-7.4035-2.063-9.7629-5.7854,12.406-3.9567,25.769-7.3664,33.628-13.921-4.2413,0.0524-8.2012,0.9488-13.74-2.8927,11.112-5.9882,22.969-10.734,32.181-19.887-5.7452-0.14063-11.939-0.0568-13.74-2.1695,10.17-6.3007,18.751-13.308,25.854-20.972-8.04,0.97052-11.435,0.13478-13.379-1.2656,7.6878-7.8742,17.418-14.523,22.057-24.226-5.9696,2.0575-11.431,2.8451-15.368-0.1808,2.6124-5.8935,13.805-9.3696,20.249-23.142-6.2844,0.60938-12.95,1.3711-14.283,0,2.9223-11.889,7.9275-18.57,12.836-25.492-13.45-0.19973-33.828,0.05235-32.905-1.0848l8.3165-8.4973c-13.138-3.5372-26.581,0.56816-36.34,3.6159-4.3819-3.4577,0.0776-7.83,5.4238-12.294-11.165,1.4906-21.254,4.0574-30.373,7.5934-4.8724-4.3993,3.1639-8.7987,7.051-13.198-17.249,3.2726-24.557,7.8707-31.82,12.475-5.2694-5.0508-0.30166-9.3433,3.2543-13.74-13.006,4.817-19.705,11.036-26.758,17.175-2.3912-3.2271-6.0749-5.5924-1.6272-13.379-9.2342,5.3227-16.189,11.595-21.334,18.622-5.7134-3.6379-3.4039-8.613-3.4351-13.198-9.5966,7.8065-15.687,16.114-23.142,24.226-1.5017-1.0934-2.8166-4.8017-3.9775-10.667-22.895,22.212-55.246,78.158-8.3165,100.34,39.919-32.947,87.616-56.888,140.48-74.849z"
     id="path3225" />
  <g
     transform="matrix(0.94191921,0,0,0.93003666,-5.5794798,150.0528)"
     id="g3273">
    <path
       inkscape:connector-curvature="0"
       sodipodi:nodetypes="cscccccc"
       id="path3774"
       d="M 250.91482,55.117036 C 139.99104,83.087782 58.354299,178.18807 55.6875,303.875 c -1.414216,66.65235 23.253943,149.63345 110.75,215.375 51.36921,26.54723 96.0421,43.19145 145.0625,39.9375 52.37629,1.75132 115.90834,-13.20548 174.6875,-67.88236 C 424.43878,390.01464 420.0916,392.23366 337.03125,230 l -0.375,0.59375 C 289.34081,129.81536 290.10705,129.65406 250.91482,55.117036 z"
       style="fill:#d70000;fill-opacity:1;fill-rule:evenodd;stroke:none" />
    <path
       inkscape:connector-curvature="0"
       inkscape:export-ydpi="5.23"
       inkscape:export-xdpi="5.23"
       inkscape:export-filename="/home/neil/Documents/Misc/Images/path3949.png"
       sodipodi:nodetypes="cccccc"
       id="path3615"
       d="m 485.27559,491.19628 c 56.33938,-51.01346 84.86765,-126.55022 82.03922,-187.33639 l 0,-0.53125 C 568.4448,168.56058 447.35079,17.322206 251.68185,53.093963 c 36.10629,73.366877 39.04565,76.603017 84.79778,175.998187 54.20783,116.75029 94.65563,188.45418 148.79596,262.10413 z"
       style="fill:#0000d4;fill-opacity:1;fill-rule:evenodd;stroke:none" />
    <path
       inkscape:export-ydpi="5.23"
       inkscape:export-xdpi="5.23"
       inkscape:export-filename="/home/neil/Documents/Misc/Images/path3949.png"
       transform="matrix(0.9832883,0,0,0.9683267,47.98104,10.95689)"
       sodipodi:open="true"
       sodipodi:end="6.2810854"
       sodipodi:start="0"
       d="M 529,303 C 529,448.80317 412.14632,567 268,567 123.85368,567 7,448.80317 7,303 7,157.19683 123.85368,39 268,39 411.93233,39 528.69718,156.85922 528.99942,302.44562"
       sodipodi:ry="264"
       sodipodi:rx="261"
       sodipodi:cy="303"
       sodipodi:cx="268"
       id="path3803"
       style="fill:none;stroke:#000000;stroke-width:12.29786873;stroke-miterlimit:4;stroke-opacity:1;stroke-dasharray:none"
       sodipodi:type="arc" />
    <path
       inkscape:connector-curvature="0"
       sodipodi:nodetypes="ccccccccccccccccccc"
       id="path4218"
       d="m 267.36743,59.319913 c -27.07492,0.489079 -52.83237,9.901645 -78.13681,18.608898 11.0396,11.823326 9.37418,15.558039 14.19246,14.659919 18.43869,-4.465836 45.7868,-14.85883 57.97111,4.83448 26.56443,33.55766 37.83026,76.50392 41.85449,118.37595 5.15871,25.44003 -47.30403,116.52589 -63.42303,152.88265 -26.20045,46.22879 -49.47611,94.20521 -78.99673,138.48542 7.0596,9.34303 17.25993,5.68676 26.86192,4.2502 8.19842,-1.22826 16.39686,-2.4565 24.59528,-3.68475 26.44013,-62.68827 54.98797,-120.2314 79.79859,-183.59412 11.30581,-26.11293 16.82865,-40.47628 30.26123,-57.57618 15.92423,9.74246 20.66525,33.77224 29.3527,50.35199 25.60238,65.87977 51.09413,131.80228 75.25809,198.22074 6.32468,2.20244 12.81613,8.78314 18.81535,2.44056 15.78086,-9.73038 34.15342,-15.82488 47.2925,-29.27438 C 489.31551,470.1223 477.27006,453.11875 469.93197,435.63605 423.41724,342.67653 378.56857,244.07385 349.45324,143.97656 338.73015,112.47164 325.526,74.506871 291.39965,62.070131 c -7.7741,-2.308013 -15.96612,-2.751575 -24.03222,-2.750218 z"
       style="fill:url(#radialGradient3298);fill-opacity:1;stroke:#000000;stroke-width:8;stroke-miterlimit:10.43299961;stroke-opacity:1;stroke-dasharray:none" />
  </g>
</svg>
